<?xml version="1.0" encoding="utf-8"?>
<!-- Generator: Adobe Illustrator 24.0.2, SVG Export Plug-In . SVG Version: 6.00 Build 0)  -->
<svg version="1.1" id="Layer_1" xmlns="http://www.w3.org/2000/svg" xmlns:xlink="http://www.w3.org/1999/xlink" x="0px" y="0px"
	 viewBox="0 0 512 512" style="enable-background:new 0 0 512 512;" xml:space="preserve">
<style type="text/css">
	.st0{fill:#0080FF;}
</style>
<g transform="translate(1 1)">
	<g>
		<g>
			<path class="st0" d="M417.1-1H92.9C69-1,50.2,17.8,50.2,41.7v426.7c0,23.9,18.8,42.7,42.7,42.7h324.3c23.9,0,42.7-18.8,42.7-42.7
				V41.7C459.8,17.8,441-1,417.1-1z M442.7,468.3c0,14.5-11.1,25.6-25.6,25.6H92.9c-14.5,0-25.6-11.1-25.6-25.6V41.7
				c0-14.5,11.1-25.6,25.6-25.6h324.3c14.5,0,25.6,11.1,25.6,25.6L442.7,468.3L442.7,468.3z"/>
			<path class="st0" d="M374.5,41.7H135.5c-14.5,0-25.6,11.1-25.6,25.6v68.3c0,14.5,11.1,25.6,25.6,25.6h238.9
				c14.5,0,25.6-11.1,25.6-25.6V67.3C400.1,52.8,389,41.7,374.5,41.7z M383,135.5c0,5.1-3.4,8.5-8.5,8.5H135.5
				c-5.1,0-8.5-3.4-8.5-8.5V67.3c0-5.1,3.4-8.5,8.5-8.5h238.9c5.1,0,8.5,3.4,8.5,8.5L383,135.5L383,135.5z"/>
			<path class="st0" d="M169.7,178.2h-34.1c-14.5,0-25.6,11.1-25.6,25.6v34.1c0,14.5,11.1,25.6,25.6,25.6h34.1
				c14.5,0,25.6-11.1,25.6-25.6v-34.1C195.3,189.3,184.2,178.2,169.7,178.2z M178.2,237.9c0,5.1-3.4,8.5-8.5,8.5h-34.1
				c-5.1,0-8.5-3.4-8.5-8.5v-34.1c0-5.1,3.4-8.5,8.5-8.5h34.1c5.1,0,8.5,3.4,8.5,8.5V237.9z"/>
			<path class="st0" d="M272.1,178.2h-34.1c-14.5,0-25.6,11.1-25.6,25.6v34.1c0,14.5,11.1,25.6,25.6,25.6h34.1
				c14.5,0,25.6-11.1,25.6-25.6v-34.1C297.7,189.3,286.6,178.2,272.1,178.2z M280.6,237.9c0,5.1-3.4,8.5-8.5,8.5h-34.1
				c-5.1,0-8.5-3.4-8.5-8.5v-34.1c0-5.1,3.4-8.5,8.5-8.5h34.1c5.1,0,8.5,3.4,8.5,8.5V237.9z"/>
			<path class="st0" d="M374.5,178.2h-34.1c-14.5,0-25.6,11.1-25.6,25.6v34.1c0,14.5,11.1,25.6,25.6,25.6h34.1
				c14.5,0,25.6-11.1,25.6-25.6v-34.1C400.1,189.3,389,178.2,374.5,178.2z M383,237.9c0,5.1-3.4,8.5-8.5,8.5h-34.1
				c-5.1,0-8.5-3.4-8.5-8.5v-34.1c0-5.1,3.4-8.5,8.5-8.5h34.1c5.1,0,8.5,3.4,8.5,8.5V237.9z"/>
			<path class="st0" d="M169.7,280.6h-34.1c-14.5,0-25.6,11.1-25.6,25.6v34.1c0,14.5,11.1,25.6,25.6,25.6h34.1
				c14.5,0,25.6-11.1,25.6-25.6v-34.1C195.3,291.7,184.2,280.6,169.7,280.6z M178.2,340.3c0,5.1-3.4,8.5-8.5,8.5h-34.1
				c-5.1,0-8.5-3.4-8.5-8.5v-34.1c0-5.1,3.4-8.5,8.5-8.5h34.1c5.1,0,8.5,3.4,8.5,8.5V340.3z"/>
			<path class="st0" d="M272.1,280.6h-34.1c-14.5,0-25.6,11.1-25.6,25.6v34.1c0,14.5,11.1,25.6,25.6,25.6h34.1
				c14.5,0,25.6-11.1,25.6-25.6v-34.1C297.7,291.7,286.6,280.6,272.1,280.6z M280.6,340.3c0,5.1-3.4,8.5-8.5,8.5h-34.1
				c-5.1,0-8.5-3.4-8.5-8.5v-34.1c0-5.1,3.4-8.5,8.5-8.5h34.1c5.1,0,8.5,3.4,8.5,8.5V340.3z"/>
			<path class="st0" d="M169.7,383h-34.1c-14.5,0-25.6,11.1-25.6,25.6v34.1c0,14.5,11.1,25.6,25.6,25.6h34.1
				c14.5,0,25.6-11.1,25.6-25.6v-34.1C195.3,394.1,184.2,383,169.7,383z M178.2,442.7c0,5.1-3.4,8.5-8.5,8.5h-34.1
				c-5.1,0-8.5-3.4-8.5-8.5v-34.1c0-5.1,3.4-8.5,8.5-8.5h34.1c5.1,0,8.5,3.4,8.5,8.5V442.7z"/>
			<path class="st0" d="M272.1,383h-34.1c-14.5,0-25.6,11.1-25.6,25.6v34.1c0,14.5,11.1,25.6,25.6,25.6h34.1
				c14.5,0,25.6-11.1,25.6-25.6v-34.1C297.7,394.1,286.6,383,272.1,383z M280.6,442.7c0,5.1-3.4,8.5-8.5,8.5h-34.1
				c-5.1,0-8.5-3.4-8.5-8.5v-34.1c0-5.1,3.4-8.5,8.5-8.5h34.1c5.1,0,8.5,3.4,8.5,8.5V442.7z"/>
			<path class="st0" d="M374.5,280.6h-34.1c-14.5,0-25.6,11.1-25.6,25.6v136.5c0,14.5,11.1,25.6,25.6,25.6h34.1
				c14.5,0,25.6-11.1,25.6-25.6V306.2C400.1,291.7,389,280.6,374.5,280.6z M383,442.7c0,5.1-3.4,8.5-8.5,8.5h-34.1
				c-5.1,0-8.5-3.4-8.5-8.5V306.2c0-5.1,3.4-8.5,8.5-8.5h34.1c5.1,0,8.5,3.4,8.5,8.5V442.7z"/>
		</g>
	</g>
</g>
</svg>
